<svg width="27" height="27" viewBox="0 0 27 27" fill="none" xmlns="http://www.w3.org/2000/svg">
<path d="M2.56507 12.5651C3.27885 11.8513 4.41277 11.8137 5.17077 12.4524L5.29349 12.5651L15.4349 22.7065C16.1884 23.4599 16.1884 24.6815 15.4349 25.4349C14.7211 26.1487 13.5872 26.1863 12.8292 25.5476L12.7065 25.4349L2.56507 15.2935C1.81164 14.5401 1.81164 13.3185 2.56507 12.5651Z" fill="#444444"/>
<path d="M23.1895 1.48026C24.1961 0.484496 25.8963 1.13971 25.9955 2.50572L26 2.63183V13.3682C26 14.2676 25.2629 14.9967 24.3536 14.9967C23.4857 14.9967 22.7746 14.3324 22.7118 13.4897L22.7073 13.3682L22.707 6.56306L14.6642 14.5197C13.6575 15.5155 11.9573 14.8603 11.8582 13.4943L11.8536 13.3682L11.8533 6.56306L3.81051 14.5197C3.20141 15.1223 2.23377 15.154 1.58693 14.6149L1.48221 14.5197C0.873103 13.9172 0.841045 12.96 1.38603 12.3202L1.48221 12.2166L12.3358 1.48026C13.3425 0.484496 15.0427 1.13971 15.1418 2.50572L15.1464 2.63183L15.1461 9.43585L23.1895 1.48026Z" fill="white"/>
</svg>
